<svg width="90" height="31" viewBox="0 0 90 31" fill="none" xmlns="http://www.w3.org/2000/svg">
<path d="M0.664361 19.5117C1.40264 21.7422 2.87916 26.2031 4.37136 26.2031C5.84796 26.2031 7.32446 21.7422 8.81666 20.789C10.2933 19.832 11.7698 22.3828 13.262 25.2499C14.7347 28.1171 16.2151 31.3046 17.7073 30.664C19.1761 30.0273 20.6604 25.5663 22.1526 22.6992C23.6214 19.832 25.1057 18.5586 26.5667 20.1484C28.0628 21.7422 29.555 26.2031 31.012 26.5195C32.5042 26.8398 34.0003 23.0156 35.4573 23.332C36.9456 23.6523 38.4456 28.1093 39.9026 28.4297C41.3909 28.75 42.8557 24.9258 44.3479 23.9688C45.8323 23.0118 47.301 24.9258 48.7932 24.6055C50.2737 24.2852 51.7463 21.7383 53.2385 20.1446C54.7151 18.5508 56.1916 17.9141 57.6838 18.2344C59.1604 18.5547 60.6369 19.8282 62.1291 19.8282C63.6018 19.8282 65.0822 18.5548 66.5744 17.918C68.0432 17.2813 69.5275 17.2813 71.0197 18.875C72.4885 20.4688 73.9728 23.6523 75.4338 26.2031C76.9299 28.7539 78.4221 30.664 79.8791 30.664C81.3713 30.664 82.8674 28.7538 84.3283 26.2031C85.6564 23.8867 87.5783 21.8867 88.5588 19.375C89.5275 16.8984 89.4572 14.3203 88.5588 11.9609C88.2541 11.164 87.8556 10.3945 87.3674 9.66013C86.1408 7.81243 85.1799 5.85933 84.0119 4.00393C83.1447 2.62503 81.8088 0.0820307 79.8791 0.0820307C78.4182 0.0820307 76.9299 1.99223 75.4338 4.54293C73.9729 7.09373 72.4885 10.2773 71.0197 11.871C69.5275 13.4648 68.0431 13.4648 66.5744 12.8281C65.0822 12.1913 63.6017 10.9179 62.1291 10.9179C60.6369 10.9179 59.1564 12.1913 57.6838 12.5117C56.1916 12.832 54.7111 12.1914 53.2385 10.6015C51.7463 9.00766 50.2697 6.46086 48.7932 6.14056C47.301 5.82025 45.8284 7.73436 44.3479 6.77728C42.8557 5.82025 41.387 1.99998 39.9026 2.31638C38.4417 2.63669 36.9456 7.09368 35.4573 7.41408C33.9964 7.73439 32.5042 3.91018 31.012 4.22658C29.5511 4.54689 28.0628 9.00388 26.5667 10.5977C25.1058 12.1915 23.6214 10.918 22.1526 8.04688C20.6604 5.17968 19.176 0.71878 17.7073 0.0820802C16.2151 -0.55464 14.7346 2.63288 13.262 5.49618C11.7698 8.36338 10.2893 10.9103 8.81666 9.95708C7.32446 9.00005 5.84396 4.54298 4.36746 4.54298C2.58226 4.54298 1.54326 8.69528 1.09796 9.93748C-0.0778385 13.2148 -0.441149 16.1758 0.664361 19.5117Z" fill="#F5A623"/>
</svg>
